<?xml version="1.0" standalone="no"?>
<!DOCTYPE svg PUBLIC "-//W3C//DTD SVG 20010904//EN"
 "http://www.w3.org/TR/2001/REC-SVG-20010904/DTD/svg10.dtd">
<svg version="1.0" xmlns="http://www.w3.org/2000/svg"
 width="238.000000pt" height="238.000000pt" viewBox="0 0 238.000000 238.000000"
 preserveAspectRatio="xMidYMid meet">
<metadata>
Created by potrace 1.14, written by Peter Selinger 2001-2017
</metadata>
<g transform="translate(0.000000,238.000000) scale(0.100000,-0.100000)"
fill="#000000" stroke="none">
<path d="M0 1190 l0 -1190 1190 0 1190 0 0 1190 0 1190 -1190 0 -1190 0 0
-1190z m1288 774 c104 -43 166 -161 142 -269 -33 -145 -189 -227 -328 -170
-51 21 -118 94 -132 144 -24 86 3 195 61 247 68 61 177 82 257 48z m536 -546
c55 -16 138 -99 154 -154 34 -115 -16 -230 -123 -287 -84 -45 -210 -22 -276
50 -66 70 -85 167 -50 249 52 121 171 178 295 142z m-1075 -595 c30 -19 58
-48 79 -83 31 -52 33 -60 30 -132 -3 -66 -7 -82 -33 -119 -111 -158 -347 -137
-420 38 -37 88 -3 223 71 279 79 60 191 67 273 17z m558 5 c100 -51 150 -166
118 -273 -31 -109 -113 -169 -231 -170 -61 0 -77 4 -120 30 -96 60 -139 185
-100 290 21 54 101 129 153 143 56 16 126 8 180 -20z m508 21 c120 -30 199
-173 164 -296 -17 -62 -97 -147 -154 -162 -98 -27 -184 -3 -248 69 -88 98 -87
228 2 323 60 66 145 89 236 66z"/>
</g>
</svg>
